<svg xmlns="http://www.w3.org/2000/svg" viewBox="0 0 64 64" role="img" aria-label="Smart Locker box logo">
  <defs>
    <linearGradient id="boxTop" x1="0%" y1="0%" x2="100%" y2="100%">
      <stop offset="0%" stop-color="#f4d4a1" />
      <stop offset="100%" stop-color="#d8a768" />
    </linearGradient>
    <linearGradient id="boxLeft" x1="0%" y1="0%" x2="100%" y2="100%">
      <stop offset="0%" stop-color="#9b6a34" />
      <stop offset="100%" stop-color="#6a431c" />
    </linearGradient>
    <linearGradient id="boxRight" x1="0%" y1="0%" x2="100%" y2="100%">
      <stop offset="0%" stop-color="#c0894c" />
      <stop offset="100%" stop-color="#8a5a2a" />
    </linearGradient>
  </defs>
  <rect x="4" y="4" width="56" height="56" rx="14" fill="#4b3210" />
  <path d="M19 23 32 16l13 7-13 7-13-7Z" fill="url(#boxTop)" />
  <path d="M19 23v18l13 7V30L19 23Z" fill="url(#boxLeft)" />
  <path d="M45 23v18l-13 7V30l13-7Z" fill="url(#boxRight)" />
  <path d="M32 16v14" stroke="#f7e6be" stroke-width="2" stroke-linecap="round" opacity=".9" />
  <path d="M24 19.8 37.2 27" stroke="#f7e6be" stroke-width="2" stroke-linecap="round" opacity=".55" />
  <rect x="28" y="28" width="8" height="10" rx="1.5" fill="#e7f1ff" />
  <rect x="29.5" y="29.5" width="5" height="7" rx="1" fill="#f6fbff" />
  <path d="M32 31.2h2.3" stroke="#9ac2f5" stroke-width="1.4" stroke-linecap="round" />
</svg>
